<svg width="20" height="20" viewBox="0 0 20 20" fill="none" xmlns="http://www.w3.org/2000/svg">
<path fill-rule="evenodd" clip-rule="evenodd" d="M13.0732 -0.000366211H6.93763C1.33336 -0.000366211 0 1.33299 0 6.92685V13.0624C0 18.6667 1.32294 20 6.92721 20H13.0627C18.667 20 20.0004 18.6771 20.0004 13.0728V6.93726C20.0004 1.33299 18.6774 -0.000366211 13.0732 -0.000366211ZM15.9378 6.35419C16.3753 6.35419 16.4691 6.57294 16.3753 6.88545C16.2189 7.64003 14.8106 9.67901 14.4843 10.1514C14.4412 10.2138 14.417 10.2489 14.417 10.2501C14.2607 10.4897 14.1982 10.6147 14.417 10.8959C14.4915 11.0077 14.6611 11.1738 14.855 11.3637C15.0408 11.5456 15.2488 11.7493 15.417 11.948C16.042 12.6564 16.5107 13.2502 16.6462 13.6564C16.7712 14.0627 16.5628 14.271 16.1462 14.271H14.6878C14.3009 14.271 14.1033 14.051 13.679 13.5788C13.4979 13.3772 13.2755 13.1296 12.9794 12.8335C12.1148 12.0001 11.7502 11.896 11.5315 11.896C11.2294 11.896 11.1461 11.9793 11.1461 12.396V13.7085C11.1461 14.0627 11.0315 14.271 10.1044 14.271C8.56268 14.271 6.86473 13.3335 5.65637 11.6043C3.84384 9.07299 3.35425 7.15629 3.35425 6.77086C3.35425 6.55211 3.43758 6.35419 3.85426 6.35419H5.31262C5.68762 6.35419 5.82304 6.52086 5.96888 6.90628C6.67723 8.98965 7.88558 10.8022 8.37518 10.8022C8.56268 10.8022 8.64601 10.7189 8.64601 10.2501V8.10422C8.6076 7.50232 8.39599 7.23892 8.23863 7.04304C8.14 6.92025 8.06267 6.82399 8.06267 6.68753C8.06267 6.53127 8.20851 6.35419 8.43768 6.35419H10.7294C11.0419 6.35419 11.1461 6.51044 11.1461 6.88545V9.78133C11.1461 10.0938 11.2815 10.198 11.3752 10.198C11.5627 10.198 11.7086 10.0938 12.0523 9.75008C13.1044 8.5834 13.844 6.77086 13.844 6.77086C13.9378 6.55211 14.1045 6.35419 14.4795 6.35419H15.9378Z" fill="#0F1113"/>
</svg>
